<mxfile host="app.diagrams.net" modified="2024-05-20T16:53:44.670Z" agent="Mozilla/5.0 (Windows NT 10.0; Win64; x64) AppleWebKit/537.36 (KHTML, like Gecko) Chrome/125.0.0.0 Safari/537.36" version="24.4.4" etag="1rW02Fjf8p3PSPyaKjg5" type="github">
  <diagram name="PÃ¡gina-1" id="GNvt4Gdq2-xz9XT1OcCQ">
    <mxGraphModel>
      <root>
        <mxCell id="0" />
        <mxCell id="1" parent="0" />
      </root>
    </mxGraphModel>
  </diagram>
</mxfile>
